<?xml version="1.0" encoding="utf-8" ?>
<svg xmlns="http://www.w3.org/2000/svg" xmlns:xlink="http://www.w3.org/1999/xlink" width="1024" height="1024">
	<path fill="#26314C" d="M698 627.685C702.079 627.554 706.03 628.263 709.624 630.258Q710.054 630.498 710.471 630.76Q710.888 631.021 711.291 631.302Q711.695 631.584 712.084 631.886Q712.473 632.187 712.846 632.507Q713.22 632.828 713.577 633.166Q713.935 633.505 714.274 633.861Q714.614 634.217 714.936 634.589Q715.258 634.961 715.561 635.349Q715.864 635.737 716.147 636.14Q716.43 636.542 716.693 636.958Q716.956 637.374 717.198 637.803Q717.44 638.231 717.66 638.672Q717.881 639.112 718.079 639.562Q718.277 640.013 718.453 640.472Q718.628 640.932 718.781 641.4Q718.933 641.868 719.062 642.343C720.506 647.687 719.722 653.71 716.789 658.421C713.569 663.591 708.651 666.168 702.898 667.51C697.99 667.657 693.785 667.149 689.534 664.466Q689.115 664.198 688.71 663.909Q688.305 663.619 687.916 663.31Q687.526 663.001 687.152 662.673Q686.779 662.344 686.422 661.997Q686.066 661.65 685.727 661.286Q685.388 660.921 685.069 660.54Q684.749 660.159 684.449 659.762Q684.149 659.365 683.869 658.954Q683.59 658.542 683.331 658.117Q683.073 657.692 682.836 657.255Q682.599 656.817 682.385 656.368Q682.171 655.919 681.979 655.46Q681.788 655.001 681.62 654.533Q681.452 654.064 681.308 653.588Q681.164 653.112 681.044 652.629Q680.924 652.146 680.829 651.658C679.773 646.435 680.737 640.72 683.721 636.274C687.144 631.175 692.158 628.805 698 627.685ZM698.855 633.509C693.922 635.314 689.868 637.371 687.569 642.434Q687.279 643.08 687.055 643.753Q686.832 644.425 686.676 645.116Q686.521 645.808 686.436 646.511Q686.351 647.214 686.336 647.923Q686.322 648.631 686.378 649.337Q686.435 650.043 686.562 650.74Q686.689 651.438 686.885 652.118Q687.081 652.799 687.344 653.457C688.862 657.149 691.792 659.7 695.522 661.031C697.504 661.739 699.585 661.96 701.676 661.978C706.083 660.849 709.548 658.969 711.975 654.975Q712.345 654.369 712.651 653.728Q712.958 653.087 713.198 652.419Q713.439 651.75 713.61 651.061Q713.782 650.372 713.884 649.669Q713.985 648.966 714.016 648.257Q714.046 647.547 714.004 646.838Q713.963 646.129 713.85 645.428Q713.737 644.726 713.554 644.04Q713.373 643.348 713.122 642.678Q712.87 642.008 712.551 641.368Q712.232 640.728 711.848 640.124Q711.464 639.52 711.02 638.959Q710.576 638.398 710.076 637.886Q709.576 637.375 709.026 636.917Q708.475 636.46 707.881 636.062Q707.286 635.663 706.654 635.329C704.178 634.017 701.624 633.584 698.855 633.509Z"/>
	<path fill="#26314C" d="M804.303 439.205C814.048 438.769 821.644 441.905 829.909 446.766C827.764 450.825 825.511 454.833 823.305 458.86C817.861 456.39 812.047 453.106 805.925 452.964C803.527 452.909 801.438 453.45 799.701 455.181C798.561 456.318 797.68 457.966 797.948 459.621C798.867 465.287 814.028 468.08 818.492 469.882C821.575 471.127 824.544 472.841 826.993 475.102C830.358 478.209 832.306 482.163 832.476 486.76C832.68 492.252 830.348 499.073 826.499 503.087C820.944 508.879 813.187 509.956 805.604 510.202C795.227 509.086 788.223 506.116 780.459 499.128C783.059 495.292 786.341 491.906 789.68 488.714C794.072 491.918 799.074 495.245 804.524 496.18C807.652 496.717 811.681 496.18 814.27 494.219C815.777 493.078 816.711 491.67 817.029 489.804C815.931 483.268 795.752 479.052 789.899 474.696C785.978 471.779 782.983 467.546 782.425 462.61C781.779 456.904 782.711 452.124 786.354 447.605C790.863 442.009 797.47 440.021 804.303 439.205Z"/>
	<path fill="#26314C" d="M458.479 417.223L475.403 417.209Q475.353 428.945 475.479 440.681Q482.858 440.607 490.229 440.961L490.437 454.828Q483.048 454.781 475.66 454.888C475.522 465.294 474.751 476.187 475.564 486.546C475.757 489.01 476.356 493.317 478.667 494.778C481.676 496.68 486.624 495.157 489.811 494.368L490.407 506.625C490.201 507.566 490.262 508.062 489.561 508.769C487.286 511.062 482.779 511.342 479.707 511.411C473.869 511.543 467.642 510.355 463.363 506.09C460.876 503.612 459.32 500.362 458.565 496.958C457.288 491.192 458.026 484.882 458.055 479.007L458.002 454.557L448.004 454.486L447.963 441.059Q453.106 440.806 458.254 440.87C458.629 433.003 458.489 425.098 458.479 417.223Z"/>
	<path fill="#26314C" d="M208.461 399.143Q226.228 398.965 243.993 399.233L244.081 449.951C244.15 461.274 244.718 472.866 243.72 484.14C243.378 488.012 242.808 492.017 241.338 495.637C238.348 502.999 232.613 508.567 225.256 511.502C216.403 515.034 206.479 514.286 197.819 510.647C193.393 508.063 189.813 504.848 186.141 501.299C189.388 496.598 193.38 492.137 197.266 487.955C201.565 492.094 206.76 495.707 212.991 495.573C216.171 495.505 219.246 494.425 221.446 492.066C223.71 489.639 224.751 486.405 225.242 483.188C226.412 475.521 225.638 467.378 225.595 459.635L225.44 417.367C219.114 417.064 212.732 417.164 206.398 417.125C207.224 411.154 207.837 405.139 208.461 399.143Z"/>
	<path fill="#26314C" d="M657.49 439.203C658.574 439.107 659.662 439.02 660.751 439.016C666.286 438.995 671.474 440.536 675.423 444.567C678.607 447.817 680.503 452.082 681.495 456.476C683.273 464.347 682.597 472.929 682.543 480.946L682.445 509.371Q673.822 509.073 665.202 509.453C665.291 495.67 666.492 481.101 665.214 467.406C664.812 463.101 663.688 457.253 660.037 454.517C658.83 453.612 657.149 453.162 655.658 453.454C650.219 454.52 646.717 457.46 643.498 461.796L643.403 509.467L627.491 509.385L627.524 478.14L627.575 475.525C627.672 469.197 628.072 461.61 623.15 456.822C620.624 454.364 617.394 453.363 613.91 453.489C611.11 453.591 608.874 454.563 607 456.667C604.913 459.011 603.793 462.185 603.201 465.22C601.145 475.775 602.518 498.007 603.009 509.393Q594.759 509.229 586.51 509.467C586.727 486.529 586.459 463.582 586.854 440.647L602.551 440.583L602.501 447.836C603.795 446.741 605.093 445.637 606.454 444.624C611.915 440.563 618.612 438.486 625.423 439.647C632.043 440.776 635.829 444.584 639.545 449.801C644.107 443.641 650.057 440.483 657.49 439.203Z"/>
	<path fill="#26314C" d="M410.251 396.679C412.147 396.511 414.105 396.457 416.008 396.459C426.927 396.471 437.495 401.777 445.086 409.408Q439.295 416.03 434.159 423.173C428.349 419.587 422.122 415.427 415.104 415.019C410.943 414.776 406.036 416.018 402.924 418.921C400.66 421.033 398.991 424.617 399.069 427.731C399.341 438.717 417.772 445.017 425.697 449.286Q428.571 450.816 431.24 452.682Q433.909 454.547 436.333 456.721C442.323 462.201 446.406 469.446 446.678 477.709C446.951 486.026 443.853 495.224 438.179 501.363C430.76 509.391 420.824 511.828 410.273 512.19C396.107 511.637 387.562 505.945 376.905 497.201C381.511 492.244 386.679 487.187 390.558 481.651C392.719 484.015 394.848 486.462 397.423 488.387C402.613 492.266 408.83 494.441 415.381 493.402C419.792 492.703 423.249 490.221 425.729 486.556C427.254 484.302 428.107 481.723 427.52 479.005C425.167 468.1 406.015 460.497 397.524 455.3C389.617 450.461 383.111 443.809 381.056 434.458C379.281 426.375 381.486 417.056 386.113 410.254C391.891 401.76 400.53 398.371 410.251 396.679Z"/>
	<path fill="#26314C" d="M530.068 438.685Q530.661 438.655 531.254 438.645C542.234 438.472 549.589 443.378 557.116 450.752C557.379 447.394 557.287 444.025 557.256 440.66Q564.812 440.622 572.367 440.665L572.451 509.524L557.348 509.484C557.319 505.966 557.142 502.443 557.014 498.927C555.738 500.585 554.391 502.179 553.045 503.78C548.504 507.701 543.735 510.206 537.733 511.08Q536.847 511.204 535.956 511.286Q535.065 511.367 534.171 511.405Q533.277 511.443 532.382 511.438Q531.487 511.433 530.594 511.384Q529.7 511.335 528.81 511.243Q527.92 511.151 527.036 511.016Q526.151 510.881 525.274 510.703Q524.397 510.525 523.53 510.305Q522.663 510.085 521.807 509.823Q520.952 509.561 520.11 509.258Q519.268 508.955 518.442 508.611Q517.616 508.268 516.807 507.885Q515.999 507.501 515.21 507.079Q514.421 506.657 513.653 506.198Q512.885 505.738 512.141 505.241Q511.396 504.745 510.677 504.213Q509.974 503.686 509.299 503.125Q508.624 502.564 507.978 501.969Q507.332 501.375 506.716 500.749Q506.1 500.123 505.517 499.466Q504.933 498.81 504.384 498.126Q503.834 497.441 503.319 496.73Q502.804 496.018 502.325 495.282Q501.847 494.546 501.406 493.787Q500.965 493.028 500.562 492.247Q500.16 491.467 499.797 490.667Q499.434 489.867 499.112 489.051Q498.79 488.234 498.509 487.402Q498.228 486.57 497.989 485.725Q497.75 484.88 497.554 484.024Q497.358 483.168 497.205 482.304Q497.052 481.439 496.942 480.568C495.616 470.7 497.933 460.417 504.1 452.506C510.621 444.14 519.75 440.02 530.068 438.685ZM533.116 453.137C527.057 454.046 522.077 455.894 518.301 461.049C514.629 466.062 513.38 472.751 514.43 478.823C515.428 484.602 518.56 489.936 523.416 493.291C527.675 496.233 532.515 497.206 537.614 497.008C544 495.622 549.465 492.976 553.083 487.266C556.435 481.975 557.198 475.282 555.632 469.269C554.151 463.583 550.667 458.529 545.462 455.676C541.678 453.602 537.392 452.876 533.116 453.137Z"/>
	<path fill="#26314C" d="M735.644 439.205C736.161 439.178 736.678 439.148 737.195 439.141C746.214 439.014 754.373 441.736 760.849 448.17C768.11 455.384 772.056 465.692 772.064 475.87C772.071 485.329 768.716 494.894 761.956 501.644Q761.358 502.23 760.732 502.786Q760.106 503.342 759.453 503.866Q758.8 504.39 758.122 504.881Q757.444 505.372 756.742 505.829Q756.04 506.285 755.317 506.707Q754.593 507.128 753.85 507.512Q753.106 507.897 752.344 508.244Q751.582 508.591 750.804 508.9Q750.026 509.209 749.234 509.479Q748.441 509.749 747.636 509.979Q746.831 510.209 746.016 510.399Q745.2 510.589 744.376 510.738Q743.552 510.887 742.722 510.995Q741.892 511.103 741.057 511.169Q740.223 511.236 739.386 511.261Q738.549 511.286 737.712 511.269C727.467 511.103 720.807 506.046 713.988 498.969Q714.205 504.653 714.311 510.34L714.321 535.42L698.582 535.513C698.237 503.876 698.549 472.201 698.544 440.56L714.102 440.572C714.298 443.52 714.368 446.489 714.497 449.442C720.774 443.007 726.702 440.206 735.644 439.205ZM731.897 453.631C725.988 454.98 720.983 457.269 717.608 462.599C714.28 467.855 713.587 474.641 715.129 480.604C716.494 485.883 719.666 490.761 724.411 493.571C728.866 496.21 733.24 496.242 738.215 495.947C743.913 494.738 748.65 492.105 751.839 487.088C755.184 481.828 756.051 475.186 754.49 469.184C753.044 463.628 749.568 458.817 744.483 456.071C740.473 453.905 736.359 453.47 731.897 453.631Z"/>
	<path fill="#26314C" d="M265.682 399.126L287.556 399.038C302.372 398.95 317.906 398.239 329.757 408.721C336.539 414.721 340.093 423.242 340.563 432.196C341.107 442.584 338.068 453.082 331.023 460.877C323.247 469.481 313.347 472.148 302.128 472.707Q293.579 472.961 285.03 472.718L284.961 510.62L266.21 510.628Q265.638 454.877 265.682 399.126ZM290.573 415.729L284.917 415.897L284.986 455.595C294.745 455.837 304.598 456.916 313.534 452.194C317.983 449.061 320.722 445.004 321.707 439.599C322.665 434.333 321.692 428.632 318.613 424.202C315.193 419.281 310.141 417.093 304.382 416.216C299.798 415.518 295.193 415.574 290.573 415.729Z"/>
	<path fill="#26314C" d="M800.703 208.024C801.307 208.011 802.129 207.944 802.733 208.097C808.775 209.635 816.177 222.353 819.543 227.537Q825.2 227.469 830.858 227.459C835.81 220.848 841.572 214.549 847.484 208.793C851.889 209.299 856.613 210.04 859.519 213.758C864.016 219.513 861.352 231.181 860.48 237.882Q864.559 241.724 868.569 245.638C874.815 243.176 882.271 239.545 889.067 239.577C892.117 239.591 894.925 240.654 897.01 242.929C899.291 245.419 900.722 248.642 900.53 252.062C900.145 258.923 887.793 267.862 882.976 272.292C883.958 275.442 884.529 278.775 885.218 282.002C889.501 283.999 894.027 285.476 898.393 287.28C902.959 289.166 906.358 291.501 908.26 296.155C910.978 295.024 915.094 293.924 917.119 291.773C919.434 289.313 919.04 286.686 918.982 283.564C916.066 281.105 911.923 278.634 909.933 275.365C908.837 273.564 908.789 271.588 909.391 269.607C909.945 267.785 911.021 266.127 912.75 265.235C917.008 263.038 923.554 265.922 927.823 267.238C929.907 264.89 932.094 262.619 934.229 260.316C933.178 256.727 931.849 252.847 932.645 249.076C933.05 247.163 933.951 245.433 935.682 244.422C937.128 243.577 938.862 243.47 940.456 243.918C945.282 245.275 947.725 250.303 949.975 254.339C952.82 254.506 955.705 254.463 958.555 254.502C960.726 249.765 962.488 245.836 966.511 242.368C969.532 243.006 973.299 243.907 975.181 246.589C977.57 249.994 976.159 254.797 975.484 258.533C977.01 260.868 978.712 262.227 980.903 263.892C985.203 262.788 989.459 261.775 993.84 261.026C994.963 262.004 996.144 263.075 997.079 264.235C998.268 265.711 998.978 267.734 998.673 269.634C998.026 273.662 993.736 276.366 990.729 278.613L992.7 288.623C995.701 289.394 998.792 290.183 1001.09 292.373C1002.98 294.174 1004.41 296.547 1004.32 299.24C1004.26 301.079 1003.33 302.833 1001.94 304.016C998.542 306.893 994.653 306.195 990.556 305.94C988.731 308.866 987.179 311.688 985.873 314.883C987.654 318.054 991.394 323.167 990.044 326.865C989.034 329.632 985.851 330.752 983.388 331.853C979.77 330.149 976.464 327.576 973.168 325.316C970.698 326.149 968.265 327.09 965.824 328.006C964.945 331.814 964.249 335.455 962.043 338.767C960.936 340.428 959.191 342.284 957.034 342.381C955.295 342.46 952.69 341.305 951.451 340.128C950.38 337.314 949.782 334.151 948.444 331.455C947.474 329.499 946.185 327.703 944.02 327.016C939.776 325.668 933.152 330.691 929.624 332.85C928.166 332.223 926.584 331.621 925.247 330.762C923.695 329.765 922.442 328.205 922.204 326.337C921.737 322.659 924.91 319.199 926.941 316.46C925.24 313.695 923.253 311.076 921.365 308.434C915.904 308.44 911.85 308.64 907.202 305.303C906.568 304.849 906.945 304.97 906.162 304.944C905.829 305.782 905.511 306.598 905.01 307.353C900.996 313.402 890.692 310.657 884.74 312.048C879.246 313.332 876.507 318.953 873.822 323.357C876.465 330.085 883.565 339.996 880.715 347.279C879.085 351.441 874.855 354 870.965 355.748C863.531 352.627 857.132 347.777 850.856 342.79L840.362 346.513C838.168 352.371 837.407 358.957 834.683 364.579C833.311 367.413 831.228 369.752 828.184 370.775C825.226 371.77 821.466 371.681 818.701 370.154C812.133 366.525 810.256 352.81 808.468 346.157C805.085 345.01 801.877 343.483 798.635 341.993Q794.196 345.372 789.661 348.619C785.835 351.342 781.005 354.351 776.105 353.362C771.415 352.417 768.438 348.779 765.86 345.057C766.667 336.95 771.465 328.655 775.085 321.465C772.799 318.56 770.949 315.544 769.394 312.194C762.778 311.06 750.626 311.979 745.767 307.064C742.176 303.432 742.672 297.849 742.698 293.166C748.705 287.894 756.041 284.851 763.246 281.614L765.561 270.848C761.132 265.127 754.64 260.507 751.058 254.224C749.644 251.744 749.394 249.298 750.273 246.576C751.217 243.654 752.843 240.874 755.685 239.472C762.597 236.062 774.475 242.062 781.167 244.525C783.758 241.935 786.761 239.685 789.601 237.368C789.307 230.777 787.097 220.553 790.27 214.601C792.491 210.434 796.492 209.259 800.703 208.024ZM800.83 213.454L794.992 216.483L795.713 240.61C791.303 244.099 786.828 247.532 782.497 251.118C774.619 248.675 766.827 245.659 758.841 243.632L755.238 250.513C760.871 256.634 766.791 262.571 772.135 268.942C770.988 274.395 769.882 279.849 769.397 285.41C762.464 288.914 755.151 291.797 748.426 295.673L748.52 303.19C756.547 304.151 764.799 304.609 772.718 306.21C775.45 311.012 778.084 315.794 781.455 320.19C778.476 328.038 774.461 335.597 772.256 343.706C774.218 345.66 776.133 347.277 778.42 348.847C785.223 344.482 791.336 339.148 798.255 334.983C803.498 337.676 808.782 339.995 814.207 342.287C815.256 346.334 818.543 362.593 820.941 364.736C823.37 364.994 826.159 365.268 828.225 363.677C834.428 358.901 829.355 345.806 837.925 340.951C839.621 339.99 841.972 339.614 843.861 339.15L850.216 336.073C857.23 340.68 864.055 345.747 871.583 349.487L876.532 345.192L867.201 322.812C870.864 317.752 873.951 312.76 876.63 307.118L899.636 305.238Q900.691 300.596 901.477 295.901C896.464 293.563 887.193 291.165 883.197 287.937C881.477 286.548 880.477 284.605 879.782 282.542C878.372 278.35 877.7 273.897 876.553 269.628C882.966 263.926 889.349 258.251 895.239 251.999C894.444 250.327 893.21 246.743 891.314 246.137C886.689 244.658 871.818 250.27 866.594 251.818C862.628 248.209 858.656 244.617 854.452 241.283C855.425 233.39 856.545 225.118 855.337 217.206C853.444 216.332 851.563 215.422 849.62 214.661C844.554 221.076 839.623 227.908 833.836 233.696C828.053 233.477 822.29 233.333 816.506 233.684C813.82 229.618 804.809 214.379 800.83 213.454ZM938.857 248.679C937.641 254.125 938.975 258.61 940.59 263.766C936.501 266.965 932.858 270.264 929.764 274.458C925.543 272.831 921.179 270.777 916.572 270.979L915.637 271.538C915.758 273.324 917.335 274.679 918.653 275.816C920.716 277.596 923.154 279.099 925.398 280.647C924.717 285.917 924.095 291.241 923.141 296.468C919.889 297.463 914.713 298.329 912.63 301.124C913.088 302.094 912.754 301.855 913.713 302.196C916.91 303.332 921.89 302.788 925.364 303.129C927.687 307.429 930.181 311.543 933.009 315.532C931.162 319.281 929.54 322.819 928.523 326.892C932.245 324.819 935.585 322.421 938.768 319.584C943.537 321.066 948.307 322.688 953.16 323.87C953.692 327.542 954.015 331.235 956.045 334.435L957.037 334.789C959.496 332.995 960.307 327.477 960.781 324.561L960.887 323.877L965.815 322.054C969.338 320.497 972.524 318.686 976.408 320.247C979.678 321.561 982.333 324.581 985.493 326.22C983.654 322.258 981.626 318.459 979.488 314.652C982.095 309.73 984.725 304.967 986.313 299.593C989.802 299.961 993.007 300.593 996.415 299.507L997.266 298.642C996.962 297.254 996.161 296.491 994.951 295.743C992.916 294.485 989.959 293.965 987.656 293.322C986.802 287.938 985.902 282.582 984.196 277.388C986.62 275.26 991.076 272.245 991.821 268.981C991.02 268.16 991.467 268.332 990.306 268.292C987.06 268.182 983.406 269.837 980.382 270.895C976.874 268.106 973.212 265.402 969.936 262.343C970.328 258.389 971.255 254.048 969.784 250.239L968.989 249.715C965.871 250.833 964.108 256.729 961.984 259.313C957.272 260.071 952.607 260.03 947.847 260.011C945.377 256.337 942.594 251.096 938.857 248.679Z"/>
	<path fill="#AEB7C1" d="M938.857 248.679C942.594 251.096 945.377 256.337 947.847 260.011C952.607 260.03 957.272 260.071 961.984 259.313C964.108 256.729 965.871 250.833 968.989 249.715L969.784 250.239C971.255 254.048 970.328 258.389 969.936 262.343C973.212 265.402 976.874 268.106 980.382 270.895C983.406 269.837 987.06 268.182 990.306 268.292C991.467 268.332 991.02 268.16 991.821 268.981C991.076 272.245 986.62 275.26 984.196 277.388C985.902 282.582 986.802 287.938 987.656 293.322C989.959 293.965 992.916 294.485 994.951 295.743C996.161 296.491 996.962 297.254 997.266 298.642L996.415 299.507C993.007 300.593 989.802 299.961 986.313 299.593C984.725 304.967 982.095 309.73 979.488 314.652C981.626 318.459 983.654 322.258 985.493 326.22C982.333 324.581 979.678 321.561 976.408 320.247C972.524 318.686 969.338 320.497 965.815 322.054L960.887 323.877L960.781 324.561C960.307 327.477 959.496 332.995 957.037 334.789L956.045 334.435C954.015 331.235 953.692 327.542 953.16 323.87C948.307 322.688 943.537 321.066 938.768 319.584C935.585 322.421 932.245 324.819 928.523 326.892C929.54 322.819 931.162 319.281 933.009 315.532C930.181 311.543 927.687 307.429 925.364 303.129C921.89 302.788 916.91 303.332 913.713 302.196C912.754 301.855 913.088 302.094 912.63 301.124C914.713 298.329 919.889 297.463 923.141 296.468C924.095 291.241 924.717 285.917 925.398 280.647C923.154 279.099 920.716 277.596 918.653 275.816C917.335 274.679 915.758 273.324 915.637 271.538L916.572 270.979C921.179 270.777 925.543 272.831 929.764 274.458C932.858 270.264 936.501 266.965 940.59 263.766C938.975 258.61 937.641 254.125 938.857 248.679ZM953.573 269.155C947.247 270.093 941.62 272.597 937.66 277.812C933.833 282.851 932.392 289.584 933.29 295.801Q933.367 296.377 933.474 296.949Q933.581 297.52 933.718 298.086Q933.854 298.651 934.019 299.209Q934.184 299.766 934.378 300.314Q934.572 300.863 934.793 301.4Q935.015 301.938 935.264 302.463Q935.513 302.989 935.789 303.501Q936.064 304.013 936.366 304.51Q936.668 305.007 936.995 305.488Q937.322 305.969 937.673 306.432Q938.024 306.895 938.399 307.34Q938.773 307.785 939.17 308.21Q939.567 308.635 939.986 309.039Q940.404 309.442 940.843 309.824Q941.281 310.206 941.739 310.565Q942.197 310.923 942.672 311.258C947.501 314.669 952.946 315.557 958.715 315.528C965.678 313.567 971.555 310.613 975.347 304.106Q975.645 303.595 975.917 303.07Q976.19 302.546 976.436 302.008Q976.681 301.47 976.9 300.92Q977.119 300.371 977.309 299.811Q977.5 299.251 977.663 298.683Q977.826 298.114 977.96 297.538Q978.094 296.963 978.199 296.381Q978.304 295.799 978.38 295.212Q978.456 294.626 978.503 294.036Q978.55 293.447 978.567 292.856Q978.584 292.265 978.571 291.673Q978.559 291.082 978.517 290.492Q978.475 289.902 978.404 289.315Q978.332 288.728 978.232 288.146Q978.131 287.563 978.002 286.986Q977.872 286.409 977.714 285.839C976.173 280.178 972.615 275.376 967.509 272.446C963.183 269.963 958.494 269.164 953.573 269.155Z"/>
	<path fill="#26314C" d="M953.573 269.155C958.494 269.164 963.183 269.963 967.509 272.446C972.615 275.376 976.173 280.178 977.714 285.839Q977.872 286.409 978.002 286.986Q978.131 287.563 978.232 288.146Q978.332 288.728 978.404 289.315Q978.475 289.902 978.517 290.492Q978.559 291.082 978.571 291.673Q978.584 292.265 978.567 292.856Q978.55 293.447 978.503 294.036Q978.456 294.626 978.38 295.212Q978.304 295.799 978.199 296.381Q978.094 296.963 977.96 297.538Q977.826 298.114 977.663 298.683Q977.5 299.251 977.309 299.811Q977.119 300.371 976.9 300.92Q976.681 301.47 976.436 302.008Q976.19 302.545 975.917 303.07Q975.645 303.595 975.347 304.106C971.555 310.613 965.678 313.567 958.715 315.528C952.946 315.557 947.501 314.669 942.672 311.258Q942.197 310.923 941.739 310.565Q941.281 310.206 940.843 309.824Q940.404 309.442 939.986 309.039Q939.567 308.635 939.17 308.21Q938.773 307.785 938.399 307.34Q938.024 306.895 937.673 306.432Q937.322 305.969 936.995 305.488Q936.668 305.007 936.366 304.51Q936.064 304.013 935.789 303.501Q935.513 302.989 935.264 302.463Q935.015 301.938 934.793 301.4Q934.572 300.863 934.378 300.314Q934.184 299.766 934.019 299.209Q933.854 298.651 933.718 298.086Q933.581 297.52 933.474 296.949Q933.367 296.377 933.29 295.801C932.392 289.584 933.833 282.851 937.66 277.812C941.62 272.597 947.247 270.093 953.573 269.155ZM955.162 274.663C949.888 275.563 945.27 277.752 942.075 282.19Q941.812 282.553 941.568 282.928Q941.323 283.304 941.098 283.691Q940.874 284.079 940.669 284.477Q940.464 284.876 940.28 285.284Q940.096 285.693 939.932 286.11Q939.769 286.527 939.627 286.952Q939.486 287.377 939.366 287.809Q939.246 288.24 939.148 288.678Q939.051 289.115 938.975 289.557Q938.9 289.998 938.847 290.443Q938.795 290.888 938.765 291.335Q938.735 291.782 938.728 292.23Q938.72 292.678 938.736 293.126Q938.752 293.574 938.79 294.02Q938.829 294.466 938.89 294.91Q938.951 295.354 939.035 295.794Q939.193 296.617 939.432 297.421Q939.67 298.224 939.987 299Q940.305 299.776 940.697 300.516Q941.089 301.257 941.552 301.955Q942.016 302.653 942.547 303.302Q943.077 303.951 943.669 304.544Q944.261 305.138 944.909 305.669Q945.557 306.201 946.254 306.666C949.69 308.951 953.116 309.559 957.135 309.716C962.119 309.042 966.71 307.045 969.743 302.886C972.532 299.063 973.366 294.246 972.516 289.636Q972.354 288.741 972.105 287.867Q971.856 286.992 971.523 286.146Q971.189 285.301 970.774 284.491Q970.359 283.682 969.867 282.918Q969.375 282.153 968.81 281.441Q968.246 280.728 967.614 280.074Q966.982 279.42 966.289 278.832Q965.596 278.243 964.849 277.725C961.764 275.621 958.782 275.034 955.162 274.663Z"/>
	<path fill="#AEB7C1" d="M800.83 213.454C804.809 214.379 813.82 229.618 816.506 233.684C822.29 233.333 828.053 233.477 833.836 233.696C839.623 227.908 844.554 221.076 849.62 214.661C851.563 215.422 853.444 216.332 855.337 217.206C856.545 225.118 855.425 233.39 854.452 241.283C858.656 244.617 862.628 248.209 866.594 251.818C871.818 250.27 886.689 244.658 891.314 246.137C893.21 246.743 894.444 250.327 895.239 251.999C889.349 258.251 882.966 263.926 876.553 269.628C877.7 273.897 878.372 278.35 879.782 282.542C880.477 284.605 881.477 286.548 883.197 287.937C887.193 291.165 896.464 293.563 901.477 295.901Q900.691 300.596 899.636 305.238L876.63 307.118C873.951 312.76 870.864 317.752 867.201 322.812L876.532 345.192L871.583 349.487C864.055 345.747 857.23 340.68 850.216 336.073L843.861 339.15C841.972 339.614 839.621 339.99 837.925 340.951C829.355 345.806 834.428 358.901 828.225 363.677C826.159 365.268 823.37 364.994 820.941 364.736C818.543 362.593 815.256 346.334 814.207 342.287C808.782 339.995 803.498 337.676 798.255 334.983C791.336 339.148 785.223 344.482 778.42 348.847C776.133 347.277 774.218 345.66 772.256 343.706C774.461 335.597 778.476 328.038 781.455 320.19C778.084 315.794 775.45 311.012 772.718 306.21C764.799 304.609 756.547 304.151 748.52 303.19L748.426 295.673C755.151 291.797 762.464 288.914 769.397 285.41C769.882 279.849 770.988 274.395 772.135 268.942C766.791 262.571 760.871 256.634 755.238 250.513L758.841 243.632C766.827 245.659 774.619 248.675 782.497 251.118C786.828 247.532 791.303 244.099 795.713 240.61L794.992 216.483L800.83 213.454ZM824.567 249.703C812.884 250.859 802.855 254.379 795.217 263.734C788.784 271.612 785.984 282.027 787.091 292.094Q787.199 293.047 787.354 293.994Q787.509 294.941 787.711 295.879Q787.913 296.816 788.161 297.743Q788.409 298.67 788.702 299.583Q788.996 300.497 789.334 301.394Q789.673 302.292 790.055 303.172Q790.438 304.052 790.864 304.911Q791.289 305.771 791.757 306.609Q792.224 307.446 792.733 308.26Q793.242 309.073 793.79 309.86Q794.338 310.648 794.925 311.407Q795.511 312.166 796.135 312.895Q796.758 313.624 797.417 314.321Q798.076 315.019 798.768 315.683Q799.461 316.346 800.186 316.975Q800.91 317.604 801.665 318.196C808.994 323.979 816.947 325.806 826.076 326.481C837.84 324.798 848.083 320.732 855.415 310.953C861.484 302.858 864.42 292.345 862.949 282.293Q862.806 281.355 862.617 280.426Q862.427 279.497 862.192 278.578Q861.957 277.659 861.676 276.753Q861.395 275.847 861.07 274.957Q860.745 274.066 860.375 273.192Q860.006 272.318 859.594 271.464Q859.182 270.61 858.728 269.777Q858.274 268.945 857.779 268.136Q857.284 267.327 856.75 266.543Q856.215 265.76 855.642 265.004Q855.07 264.248 854.46 263.521Q853.85 262.795 853.206 262.099Q852.561 261.404 851.882 260.741Q851.203 260.079 850.493 259.451Q849.782 258.823 849.041 258.231Q848.3 257.639 847.53 257.085Q846.291 256.18 844.984 255.377Q843.676 254.573 842.309 253.877Q840.942 253.181 839.523 252.596Q838.105 252.011 836.644 251.542Q835.183 251.072 833.69 250.721Q832.196 250.369 830.679 250.138Q829.162 249.907 827.632 249.798Q826.101 249.689 824.567 249.703Z"/>
	<path fill="#26314C" d="M824.567 249.703Q826.101 249.689 827.632 249.798Q829.162 249.907 830.679 250.138Q832.196 250.369 833.69 250.721Q835.183 251.072 836.644 251.542Q838.105 252.011 839.523 252.596Q840.942 253.181 842.309 253.877Q843.676 254.573 844.984 255.377Q846.291 256.18 847.53 257.085Q848.3 257.639 849.041 258.231Q849.782 258.823 850.492 259.451Q851.203 260.079 851.882 260.741Q852.561 261.404 853.206 262.099Q853.85 262.795 854.46 263.521Q855.07 264.248 855.642 265.004Q856.215 265.76 856.75 266.543Q857.284 267.327 857.779 268.136Q858.274 268.945 858.728 269.777Q859.182 270.61 859.594 271.464Q860.006 272.318 860.375 273.192Q860.745 274.066 861.07 274.957Q861.395 275.847 861.676 276.753Q861.957 277.659 862.192 278.578Q862.427 279.497 862.617 280.426Q862.806 281.355 862.949 282.293C864.42 292.345 861.484 302.858 855.415 310.953C848.083 320.732 837.84 324.798 826.076 326.481C816.947 325.806 808.994 323.979 801.665 318.196Q800.91 317.604 800.186 316.975Q799.461 316.346 798.768 315.683Q798.076 315.019 797.417 314.321Q796.758 313.624 796.135 312.895Q795.511 312.166 794.925 311.407Q794.338 310.648 793.79 309.86Q793.242 309.073 792.733 308.26Q792.224 307.446 791.757 306.609Q791.289 305.771 790.863 304.911Q790.438 304.052 790.055 303.172Q789.673 302.292 789.334 301.394Q788.996 300.497 788.702 299.583Q788.409 298.67 788.161 297.743Q787.913 296.816 787.711 295.879Q787.509 294.941 787.354 293.994Q787.199 293.047 787.091 292.094C785.984 282.027 788.784 271.612 795.217 263.734C802.855 254.379 812.884 250.859 824.567 249.703ZM821.704 255.628C811.733 257.77 803.657 261.461 798.003 270.337Q797.563 271.037 797.159 271.758Q796.755 272.48 796.387 273.22Q796.019 273.961 795.689 274.719Q795.359 275.477 795.068 276.251Q794.776 277.025 794.523 277.812Q794.271 278.599 794.058 279.398Q793.845 280.197 793.672 281.006Q793.5 281.815 793.368 282.631Q793.236 283.447 793.145 284.269Q793.054 285.091 793.005 285.916Q792.955 286.742 792.947 287.568Q792.938 288.395 792.972 289.221Q793.005 290.048 793.079 290.871Q793.154 291.695 793.269 292.513Q793.385 293.332 793.542 294.144Q793.698 294.956 793.895 295.759C796.006 304.23 801.807 311.616 809.363 315.932C815.609 319.5 822.561 320.617 829.659 319.694C839.141 317.619 846.754 313.435 852.098 305.076Q852.53 304.41 852.929 303.723Q853.327 303.036 853.691 302.331Q854.055 301.625 854.383 300.902Q854.711 300.179 855.003 299.44Q855.295 298.702 855.549 297.95Q855.804 297.198 856.021 296.434Q856.238 295.67 856.417 294.897Q856.595 294.123 856.735 293.341Q856.875 292.56 856.976 291.772Q857.076 290.985 857.138 290.193Q857.199 289.401 857.221 288.608Q857.243 287.814 857.225 287.02Q857.207 286.226 857.15 285.434Q857.093 284.642 856.996 283.854Q856.9 283.066 856.764 282.284Q856.628 281.502 856.454 280.727Q856.283 279.955 856.075 279.192Q855.866 278.43 855.619 277.678Q855.373 276.927 855.089 276.189Q854.806 275.451 854.486 274.728Q854.166 274.005 853.811 273.298Q853.455 272.592 853.065 271.904Q852.675 271.216 852.251 270.549Q851.827 269.881 851.371 269.236Q850.914 268.59 850.426 267.968Q849.938 267.346 849.42 266.749Q848.901 266.152 848.354 265.581Q847.806 265.011 847.231 264.468Q846.656 263.926 846.055 263.412Q845.453 262.899 844.827 262.416Q844.201 261.933 843.551 261.482Q842.902 261.031 842.231 260.613C836.005 256.741 828.974 255.164 821.704 255.628Z"/>
	<path fill="#26314C" d="M114.399 396.684C119.973 396.137 125.742 396.833 131.117 398.35C140.128 400.895 150.488 406.751 155.014 415.311C156.209 417.571 156.786 420.076 155.851 422.543C154.503 426.102 151.455 427.782 148.22 429.332C148.536 432.376 148.836 435.446 148.935 438.505C149.252 448.364 148.044 462.927 140.742 470.392C136.924 474.294 132.816 475.083 127.617 475.021C127.512 479.658 126.985 484.125 126.247 488.701C137.039 505.29 129.431 514.133 131.733 530.517C132.573 536.498 135.501 542.474 137.705 548.064C145.774 552.469 159.686 561.875 167.478 564.58C168.229 564.84 169.247 565.244 169.954 564.776C171.873 563.504 171.915 559.964 172.236 557.878C179.579 553.102 190.752 549.517 199.071 546.017C211.822 540.651 225.078 533.959 238.35 530.122C244.667 539.476 250.363 557.347 254.884 568.191C261.358 583.716 268.774 599.015 274.441 614.853C266.295 620.217 256.388 623.866 247.437 627.762C229.218 635.694 210.792 643.134 192.515 650.931C182.377 630.253 175.36 607.983 166.18 586.846C158.093 585.58 150.143 582.89 142.312 580.547C143.384 586.067 144.095 592.131 146.024 597.406C148.758 604.88 154.395 611.655 158.686 618.306C163.636 625.978 168.324 634.093 172.227 642.348Q177.215 653.071 180.28 664.493C184.781 681.059 186.836 698.106 189.988 714.945C191.389 722.43 193.986 729.9 194.668 737.486C194.917 740.268 194.703 742.217 193.768 744.861C202.349 747.554 208.729 746.248 216.376 748.028C219.19 748.683 223.2 750.581 224.502 753.353C225.217 754.877 224.999 756.432 224.24 757.87C219.733 766.403 200.315 772.621 191.252 775.536C185.495 777.296 178.148 779.246 172.134 777.914C168.774 777.17 165.994 775.23 164.297 772.211C160.44 765.349 162.875 755.217 164.993 748.129C164.906 748.014 164.816 747.9 164.731 747.783C164.591 747.588 164.456 747.388 164.316 747.192C160.339 741.591 159.507 732.148 157.507 725.506C150.853 703.403 142.999 676.677 130.24 657.49C124.422 648.742 117.33 641.051 110.308 633.277C108.025 644.921 105.81 656.744 102.203 668.066C96.0474 687.387 86.2829 706.793 77.2672 724.951C73.6479 732.24 69.9398 739.756 65.5121 746.592C63.9698 748.973 59.0278 753.526 58.7521 755.789C60.6388 760.028 72.9291 766.497 76.9187 769.898C80.2192 772.712 85.4722 777.712 85.6482 782.265C85.7105 783.88 85.0994 785.398 84.0019 786.565C82.0847 788.605 79.1477 789.033 76.491 789.127C65.2124 789.529 31.7948 780.669 23.6459 772.503C19.4383 768.287 23.4621 761.623 25.6521 757.314C27.5227 753.633 30.2788 750.224 31.8365 746.423C33.9769 741.2 35.0612 735.386 36.9266 730.011C43.3112 711.615 53.4579 687.329 55.7981 668.615C57.7705 652.841 56.6756 636.664 56.44 620.818Q56.0748 620.372 55.7251 619.914C47.3364 608.828 50.8738 579.035 52.8588 565.328C57.5662 532.821 72.3517 484.146 99.3255 464.04C90.8336 456.158 85.0967 447.955 83.1351 436.301C81.6355 427.391 83.3346 418.218 88.7031 410.85C94.9961 402.213 104.148 398.369 114.399 396.684ZM235.524 537.051C215.337 545.691 195.112 555.537 174.128 561.964C180.527 562.313 188.184 562.053 192.811 567.253C194.109 568.712 194.396 569.887 194.717 571.748C196.93 573.642 200.279 574.944 201.883 577.332C201.964 578.622 202.076 579.15 201.192 580.239C200.465 581.135 199.232 582.002 198.35 582.737C198.056 584.645 197.942 586.658 196.899 588.325C195.242 588.765 193.602 587.03 192.273 587.965C191.116 588.778 190.598 590.674 189.598 591.655C186.333 594.857 177.221 591.247 173.428 589.995C179.128 603.54 184.266 617.329 189.981 630.85L195.347 644.306C219.451 633.599 243.981 623.688 267.906 612.608C264.81 605.544 236.407 537.939 235.524 537.051ZM179.927 568.075L169.797 570.822C169.634 574.775 169.678 578.863 169.212 582.787C173.947 584.175 178.717 585.497 183.429 586.958C184.918 587.219 185.281 587.513 186.509 586.471C189.039 584.323 191.171 581.109 193.426 578.649C191.075 577.08 188.703 575.599 186.659 573.631C186.386 571.789 186.379 569.567 185.005 568.196C183.281 567.613 181.708 567.893 179.927 568.075Z"/>
	<path fill="#FEFEFE" d="M104.102 467.466C109.371 468.295 116.793 469.456 120.897 473.208C121.897 474.122 122.438 475.095 122.413 476.484C122.392 477.654 122.174 478.203 121.256 478.941L120.229 478.571C117.621 476.903 114.838 475.357 112.002 474.116C109.718 473.116 102.037 471.308 100.758 469.691L104.102 467.466Z"/>
	<path fill="#3E5172" d="M34.1922 751.757C39.6579 755.329 46.6526 756.099 52.9471 757.23C60.3465 764.877 73.8583 772.736 79.2821 780.38C79.9273 781.289 80.0942 781.381 79.9067 782.515C77.9612 783.306 75.7975 783.042 73.7311 783.003C57.4778 782.081 42.2164 775.568 27.5556 768.989Q30.534 760.242 34.1922 751.757Z"/>
	<path fill="#FEFEFE" d="M133.52 427.401C135.86 427.565 139.331 427.767 141.181 429.329C142.768 430.668 143.155 434.149 143.314 436.079C144.035 444.837 142.587 459.547 136.443 466.387C134.649 468.384 132.306 469.731 129.565 469.711C125.297 469.679 122.075 466.83 119.151 464.072C115.613 459.204 112.264 452.48 112.571 446.259C112.648 444.68 113.15 443.974 114.298 442.954C120.555 441.68 117.169 449.21 121.268 450.568C122.582 451.004 123.152 450.616 124.247 450.009C125.884 447.455 125.171 445.419 124.579 442.687C127.728 437.682 130.625 432.555 133.52 427.401Z"/>
	<path fill="#3E5172" d="M187.099 747.146L188.719 746.836C198.308 753.242 214.769 751.305 219.203 755L219.044 756.065C214.27 761.988 203.72 765.132 196.686 767.513C190.392 769.716 180.724 773.723 173.988 772.276C172.009 771.851 170.344 770.811 169.287 769.056C166.252 764.017 168.736 755.031 169.889 749.666C175.656 748.963 181.397 748.285 187.099 747.146Z"/>
	<path fill="#FEFEFE" d="M114.625 402.63C118.616 402.425 122.41 402.417 126.351 403.166C135.316 404.867 143.938 409.359 149.06 417.134C150.098 418.71 150.573 419.828 150.163 421.692C145.432 426.704 137.087 420.366 131.4 422.321C126.764 423.914 122.611 433.988 120.371 438.022C117.844 437.154 115.379 436.073 112.74 437.266C109.758 438.613 108.62 441.889 107.534 444.722C107.29 451.264 108.394 456.35 110.187 462.649C108.057 461.901 105.905 461.022 103.97 459.853C96.218 455.171 91.3829 446.957 89.3526 438.292C87.5423 430.565 88.1204 422.623 92.5839 415.827C97.889 407.749 105.597 404.63 114.625 402.63Z"/>
	<path fill="#FEFEFE" d="M62.4897 625.739C77.7483 630.728 90.9695 629.233 106.379 625.884C103.368 639.873 100.463 653.912 96.0697 667.548C88.7388 690.302 77.6063 711.675 66.457 732.742C63.214 739.103 59.4373 745.188 55.6687 751.245C49.2213 750.216 43.1748 748.493 37.006 746.414C40.9966 737.906 43.6996 728.774 46.7958 719.917C52.4394 703.773 59.2812 687.089 61.4596 670.034C63.3202 655.468 62.554 640.399 62.4897 625.739Z"/>
	<path fill="#FEFEFE" d="M141.696 603.938C146.885 608.053 150.973 616.855 154.369 622.55C159.985 631.969 165.941 641.366 170.053 651.566C176.065 666.477 178.341 682.719 181.079 698.477C183.535 712.612 186.063 726.586 189.44 740.543C182.252 742.754 175.163 743.75 167.662 744.07C167.508 741.43 166.947 738.824 166.482 736.224C159.058 708.149 149.723 674.513 132.531 650.675C125.926 641.517 117.384 633.879 110.516 624.866C121.74 619.046 131.975 611.989 141.696 603.938Z"/>
	<path fill="#F38478" d="M205.554 612.95C207.352 613.363 208.939 613.755 210.044 615.406C210.766 616.487 211.003 617.818 210.622 619.071C209.992 621.141 208.414 622.078 206.606 623.011C204.574 622.507 202.834 622.023 201.705 620.106C201.09 619.062 200.939 617.85 201.33 616.697C202.044 614.588 203.693 613.835 205.554 612.95Z"/>
	<path fill="#F38478" d="M223.907 556.63Q225.201 556.553 226.497 556.565C228.815 556.603 231.687 557.106 233.239 559.015C237.384 564.114 230.73 573.302 230.406 578.88C230.177 582.825 231.903 586.855 231.096 590.795C230.26 594.881 227.476 598.536 227.066 602.747C226.9 604.461 227.217 605.928 228.366 607.255C229.379 608.426 230.735 609.405 232.302 609.562C231.346 608.333 230.478 607.262 229.927 605.783L230.245 605.1C233.1 606.548 235.397 607.899 238.508 608.816C241.813 608.094 249.936 603.922 252.035 604.571C252.165 606.137 251.152 607.356 250.373 608.641C249.263 609.743 248.112 610.698 246.718 611.431C242.559 613.62 237.464 614.274 232.954 612.84C228.669 611.478 226.167 608.968 224.05 605.115C223.842 601.314 226.036 591.679 224.805 589.161C222.705 584.864 215.107 587.203 211.483 585.578C209.421 584.653 207.693 582.363 207.02 580.25C205.645 575.937 207.133 570.388 209.315 566.584C212.73 560.632 217.578 558.197 223.907 556.63ZM222.406 563.539C216.718 566.295 212.703 569.771 210.608 575.969C210.063 577.581 209.738 579.31 210.4 580.951C210.916 582.228 212.468 583.208 213.72 583.684C214.649 584.038 215.779 584.059 216.76 584.02C222.098 580.955 226.947 575.486 228.577 569.421C228.984 567.905 228.966 566.855 228.435 565.358C227.618 564.373 226.782 563.654 225.466 563.505C224.482 563.394 223.393 563.458 222.406 563.539ZM227.932 579.904C226.549 581.066 225.023 581.964 224.376 583.673C224.958 584.89 225.609 585.152 226.74 585.786L228.229 585.95C229.199 584.479 229.008 583.383 228.669 581.7C228.493 580.828 228.57 580.523 227.932 579.904Z"/>
	<path fill="#5E7E9F" d="M95.8221 475.939C103.343 477.184 110.77 478.955 116.618 484.171C125.095 491.732 126.428 502.18 127.041 512.835C125.054 509.028 123.811 504.333 121.219 500.953C119.632 498.884 117.841 496.577 115.098 496.237L114.445 496.747C114.115 497.738 114.096 498.619 114.208 499.648C114.612 503.364 120.772 516.003 122.365 521.031C124.571 527.996 129.52 547.173 133.676 552.23C136.793 556.023 143.44 558.632 147.799 560.676C153.986 563.576 159.356 566.223 164.704 570.511C164.435 573.884 163.802 577.272 163.303 580.621C150.942 576.448 137.794 573.874 125.866 568.503C122.504 566.989 119.347 565.112 116.882 562.317C109.515 553.963 106.066 535.609 103.865 524.651C102.995 520.319 102.377 515.669 100.739 511.549C99.99 509.663 99.0384 507.608 97.065 506.783C96.2019 507.102 96.3048 506.902 95.8344 507.631C92.2049 513.256 97.2812 526.043 98.9214 531.985C101.538 541.317 103.861 551.627 108.092 560.362C113.795 572.137 125.429 575.043 136.797 578.967C137.626 584.94 139.162 590.941 140.266 596.883C132.816 605.376 122.694 611.815 112.493 616.478C95.0926 624.431 78.9834 625.362 61.0431 618.684C58.3059 612.016 57.4353 604.94 57.1936 597.784C55.9409 560.7 69.9916 503.381 95.8221 475.939Z"/>
	<path fill="#26314C" d="M902.995 369.191C907.408 369.022 911.785 369.922 915.569 372.264C922.824 376.754 925.358 384.153 927.163 391.99C932.42 395.842 937.597 400.41 941.099 405.966C946.772 414.968 947.712 427.643 945.358 437.835C942.591 449.819 935.163 456.851 925.087 463.184C925.098 466.653 925.213 470.127 925.284 473.595C928.47 476.348 931.752 479.12 934.277 482.516C941.573 492.327 942.61 509.052 948.06 520.532C950.263 525.17 954.517 528.178 957.218 532.453C959.609 536.238 959.923 540.86 958.83 545.139C957.288 551.172 953.153 554.657 947.982 557.596C949.189 565.222 949.664 572.305 947.13 579.72C948.622 585.859 949.608 592.204 950.782 598.416C952.307 599.531 953.875 600.64 955.278 601.905C958.788 605.068 961.252 609.438 961.325 614.233C961.415 620.112 958.182 624.405 954.344 628.454C955.013 633.672 955.703 638.87 956.595 644.057C963.191 646.543 996.323 666.988 1002.3 672.035C1005.88 675.057 1007.7 679.059 1008 683.744C1008.31 688.85 1006.77 694.166 1003.25 697.943C997.16 704.491 946.865 727.681 934.688 733.754L841.154 780.614L799.419 801.929C792.426 805.577 785.604 809.71 778.474 813.067C774.744 814.822 770.384 816.537 766.216 816.596C762.754 816.644 758.746 814.786 755.628 813.348C737.088 804.803 719.369 793.76 701.484 783.917C692.084 778.745 668.437 768.003 661.87 761.282C658.467 757.8 656.322 753.458 656.577 748.515C656.701 746.113 657.826 744.333 659.613 742.764C665.403 737.679 683.878 729.835 691.847 725.972Q707.015 718.553 722.096 710.959C726.619 708.688 733.308 706.174 737.025 702.723C739.901 700.054 741.781 695.983 743.738 692.631C750.543 680.975 756.788 670.275 756.921 656.35Q756.941 654.957 756.89 653.564Q756.84 652.171 756.72 650.783Q756.6 649.394 756.41 648.014Q756.221 646.633 755.963 645.264Q755.705 643.894 755.378 642.54Q755.052 641.185 754.658 639.848Q754.264 638.511 753.803 637.196Q753.343 635.881 752.817 634.59Q752.292 633.299 751.702 632.037Q751.112 630.774 750.46 629.542Q749.808 628.311 749.095 627.114Q748.382 625.916 747.61 624.756Q746.838 623.596 746.009 622.476Q745.18 621.356 744.296 620.279Q743.411 619.201 742.474 618.17Q741.537 617.138 740.55 616.155C718.131 593.73 694.253 597.011 665.433 597.258L618.25 597.411L299.353 597.346L297.61 591.503L572.982 591.566L658.066 591.604C672.713 591.594 687.803 590.66 702.38 591.839Q704.119 591.981 705.848 592.213Q707.577 592.446 709.291 592.769Q711.005 593.091 712.701 593.503Q714.396 593.914 716.067 594.414Q717.739 594.914 719.382 595.5Q721.025 596.086 722.635 596.758Q724.245 597.429 725.818 598.184Q727.391 598.938 728.922 599.774C743.612 607.704 755.586 622.276 760.268 638.316Q760.674 639.743 761.012 641.187Q761.35 642.631 761.618 644.09Q761.886 645.549 762.083 647.019Q762.281 648.489 762.408 649.967Q762.535 651.445 762.591 652.927Q762.648 654.409 762.633 655.892Q762.617 657.376 762.531 658.857Q762.445 660.337 762.288 661.812Q762.131 663.287 761.904 664.753Q761.676 666.219 761.379 667.672Q761.081 669.125 760.715 670.562Q760.348 672 759.912 673.417Q759.477 674.835 758.974 676.231Q758.472 677.626 757.903 678.996Q757.334 680.366 756.7 681.707Q756.066 683.048 755.368 684.357C752.767 689.308 749.434 693.864 746.739 698.782Q773.205 684.676 800.481 672.209C800.047 658.839 800.133 645.411 800.03 632.033C799.949 621.591 799.003 610.323 800.899 600.055C803.263 597.296 806.079 595.281 809.3 593.633C814.056 591.199 819.281 589.342 823.724 586.347C830.918 581.498 838.439 571.19 845.127 564.813C850.17 560.004 855.456 555.417 862.8 555.6Q862.612 553.035 862.552 550.463Q862.492 547.892 862.561 545.32Q862.629 542.749 862.825 540.184Q863.022 537.62 863.346 535.068Q863.669 532.516 864.12 529.984Q864.57 527.451 865.146 524.944Q865.722 522.437 866.422 519.962Q867.122 517.487 867.945 515.05C870.398 507.85 873.328 500.702 874.972 493.262C875.932 488.918 875.716 484.298 876.225 479.879C877.039 472.814 879.468 470.405 884.893 466.129C877.787 462.833 871.402 459.34 866.94 452.67C860.335 442.795 859.478 429.381 861.91 418.031C864.423 406.296 869.699 397.733 879.828 391.104C880.892 386.635 882.493 382.938 885.323 379.291C889.716 373.628 895.881 370.043 902.995 369.191ZM918.064 589.772L916.019 590.168C916.931 604.081 916.571 618.245 916.665 632.192C916.734 642.286 917.633 653.568 916.198 663.535C915.987 664.998 915.695 666.145 914.703 667.292C912.902 669.374 909.829 670.408 907.544 671.881C904.724 680.676 902.311 689.531 899.032 698.183C903.385 699.749 909.03 701.537 911.237 706.002C912.276 708.106 912.18 710.685 911.312 712.833C909.955 716.193 906.781 718.355 903.53 719.655C895.973 722.678 885.558 722.207 878.105 718.963C874.561 717.42 870.871 714.791 869.534 711C868.588 708.32 869.107 705.683 870.428 703.229C871.857 700.574 874.121 698.454 876.337 696.453C874.059 695.216 871.596 694.07 869.459 692.608C862.682 696.532 855.534 700.142 848.364 703.29C841.205 700.263 834.392 696.499 827.477 692.961C818.289 688.26 808.59 683.992 800.497 677.49C787.562 684.808 774.09 691.13 760.768 697.702L703.777 726.311C690.83 732.814 677.612 739.033 664.977 746.124Q694.807 761.712 724.433 777.682C735.124 783.538 752.619 795.016 763.319 798.089C765.825 798.808 768.381 797.918 770.785 797.171C778.497 794.776 785.699 790.633 792.844 786.93L819.563 773.156L940.826 712.181C952.438 706.321 964.21 700.772 975.803 694.885C984.285 690.579 992.928 685.24 1001.93 682.182C1002.2 681.055 1001.85 680.421 1001.23 679.475C997.156 673.241 965.655 655.527 956.959 650.125C957.764 655.528 958.104 661.015 958.57 666.456C963.771 666.58 969.379 667.632 973.097 671.626C974.91 673.574 975.87 676.067 975.701 678.738C975.496 681.949 973.733 684.763 971.312 686.803C965.904 691.359 957.972 692.199 951.159 691.48C945.723 690.907 939.524 688.914 936.02 684.52C934.569 682.699 933.8 680.539 934.116 678.204C934.673 674.078 937.408 671.724 940.469 669.321L939.202 658.799C934.516 661.539 926.831 665.105 921.408 662.96C920.85 662.739 920.784 662.64 920.386 662.303C920.508 661.145 920.578 661.15 921.434 660.424C925.732 656.782 932.681 655.867 937.697 653.216C937.842 651.158 937.907 649.398 938.804 647.503L939.699 646.95C941.849 648.197 942.786 651.611 943.431 653.948C944.567 658.062 945.201 662.397 945.708 666.63C948.371 666.658 951.062 666.602 953.716 666.83C952.266 654.749 950.308 642.608 949.238 630.498C943.817 631.071 938.857 630.964 934.37 627.36Q933.798 626.898 933.276 626.38Q932.754 625.862 932.286 625.295Q931.819 624.727 931.411 624.115Q931.003 623.503 930.659 622.854Q930.314 622.204 930.037 621.523Q929.76 620.842 929.553 620.136Q929.346 619.43 929.211 618.708Q929.076 617.985 929.014 617.252C928.6 612.739 929.999 608.955 932.186 605.091Q929.421 596.777 926.941 588.373C923.982 589.15 921.157 589.876 918.064 589.772ZM1001.83 688.561C991.705 693.19 981.851 698.4 971.887 703.365L933.759 722.232L834.372 772.004Q816.503 780.909 798.82 790.18C790.838 794.354 782.738 799.267 774.259 802.29C769.35 804.041 763.486 804.352 758.565 802.484C745.054 797.356 732.29 788.784 719.63 781.856C700.568 771.425 681.197 761.556 662.109 751.168C662.882 753.248 663.548 755.326 664.786 757.183C672.642 763.779 692.007 772.431 701.761 777.702C720.539 787.85 739.109 799.107 758.308 808.393C760.542 809.473 764.067 811.359 766.53 811.267C766.947 811.252 767.223 811.183 767.635 811.113C767.847 811.078 768.06 811.051 768.27 811.01C775.693 809.589 793.047 798.988 800.728 794.906Q814.662 787.516 828.75 780.426L922.552 733.629Q956.377 717.191 989.726 699.806C993.326 697.887 998.31 695.762 1000.63 692.311C1001.42 691.121 1001.84 690.003 1001.83 688.561ZM900.324 676.477C895.663 678.604 891.157 680.965 886.635 683.368C885.733 686.757 883.658 693.147 885.129 696.393L886.106 697.09Q889.677 697.577 893.26 697.974C895.213 693.671 901.047 681.141 900.691 676.771L900.324 676.477Z"/>
	<path fill="#EBC86C" d="M859.307 560.889C861.952 561.549 864.068 562.829 866.354 564.237Q855.524 569.775 844.754 575.428L838.032 579.078C844.903 572.677 851.631 566.337 859.307 560.889Z"/>
	<path fill="#FEFEFE" d="M941.528 585.07L941.956 585.273C944.309 588.19 944.532 594.401 945.083 598.123C942.174 598.641 939.425 599.341 936.6 600.209C934.241 597.395 933.609 591.288 932.839 587.643C935.745 586.823 938.634 585.931 941.528 585.07Z"/>
	<path fill="#5E7E9F" d="M958.084 671.446C961.228 671.84 966.164 672.519 968.533 674.846C969.353 675.652 969.919 676.532 969.806 677.714C969.659 679.255 968.824 680.386 967.709 681.393C963.219 685.447 957.054 685.507 951.385 685.358C947.892 684.717 941.737 683.612 939.896 680.173C939.35 679.152 939.108 678.22 939.55 677.096C940.528 674.612 943.957 673.371 946.192 672.443C948.371 672.846 950.529 673.364 952.69 673.85C954.509 673.105 956.292 672.257 958.084 671.446Z"/>
	<path fill="#5E7E9F" d="M880.862 699.875C885.232 703.446 891.262 703.223 896.596 703.815C899.61 704.15 904.135 704.879 905.887 707.678C906.513 708.677 906.739 710 906.333 711.124C905.393 713.722 902.046 714.566 899.706 715.408C896.75 715.526 893.787 715.652 890.832 715.449C886.304 715.137 877.942 714.202 875.123 710.309C874.316 709.195 874.018 708.142 874.345 706.776C875.096 703.634 878.441 701.663 880.862 699.875Z"/>
	<path fill="#5E7E9F" d="M946.104 603.524C949.402 603.73 951.226 605.547 953.592 607.618C954.262 609.458 954.953 611.456 955.292 613.388C955.783 616.192 955.484 619.379 953.648 621.669C951.234 624.679 947.563 625.23 943.985 625.705C942.47 625.273 940.894 624.766 939.491 624.048C937.215 622.884 935.241 620.755 934.519 618.278C933.283 614.039 935.275 610.278 937.337 606.724C940.166 605.402 943.141 604.493 946.104 603.524Z"/>
	<path fill="#5E7E9F" d="M941.972 527.001C943.333 526.939 944.8 527.064 946.055 527.63C949.225 529.061 951.375 532.037 952.418 535.275C953.67 539.163 953.784 543.536 951.872 547.225C949.973 550.89 947.452 551.952 943.716 553.173C942.478 553.051 941.208 552.919 939.996 552.635C937.193 551.98 934.402 549.958 932.99 547.446C931.318 544.473 931.117 540.766 932.06 537.525C933.624 532.156 937.371 529.558 941.972 527.001Z"/>
	<path fill="#FEFEFE" d="M885.413 520.766C888.688 522.913 891.435 526.657 894.652 529.168C893.749 535.544 893.306 542.024 892.717 548.438C889.029 553.395 886.813 558.309 884.507 563.992L880.993 561.392C876.795 558.424 872.95 558.191 867.972 557.63C869.57 557.254 871.251 556.924 872.778 556.311C878.606 553.969 880.045 538.003 881.571 532.079C882.571 528.197 883.934 524.487 885.413 520.766Z"/>
	<path fill="#FEFEFE" d="M918.485 465.529C919.803 466.438 920.546 475.297 921.125 477.571C917.618 481.172 913.923 484.391 909.085 486.074C903.17 488.132 897.956 487.079 892.457 484.507C892.334 484.387 892.203 484.273 892.087 484.145C887.913 479.57 888.456 473.358 888.494 467.623C899.702 470.673 907.64 469.346 918.485 465.529Z"/>
	<path fill="#FEFEFE" d="M902.499 374.513C902.915 374.518 903.331 374.531 903.746 374.568C907.702 374.916 912.036 375.777 914.68 379.046L914.496 379.753C909.819 382.27 903.205 379.305 898.474 381.438C897.522 381.867 897.858 381.612 897.446 382.697C897.945 383.763 898.634 384.492 899.731 384.95C905.9 387.521 913.875 385.836 919.963 383.812C920.42 386.958 921.768 392.008 920.604 395.015L919.868 395.114L918.246 393.373C917.281 392.857 917.525 392.75 916.372 393.079C915.529 394.91 915.965 397.491 916.048 399.482C910.61 399.65 904.774 399.975 899.424 398.847C892.596 397.406 889.127 393.897 885.418 388.32C890.462 382.078 894.651 377.168 902.499 374.513Z"/>
	<path fill="#FEFEFE" d="M883.06 476.305C886.038 481.017 884.866 485.791 890.035 489.709C897.461 495.337 910.127 493.601 917.407 488.404C919.315 487.041 923.114 482.601 925.097 482.269C924.94 483.723 924.303 484.707 923.487 485.909C919.855 491.257 905.48 504.664 899.308 505.614C891.952 506.747 893.849 494.437 889.259 491.642C888.301 491.058 886.879 490.932 885.838 491.365C884.089 492.094 883.048 494.208 882.2 495.762L881.898 496.323C880.105 502.532 881.452 508.716 880.607 515C879.714 521.634 876.288 527.695 874.553 534.113C873.123 539.398 874.107 544.651 871.093 549.546C870.452 550.587 870.059 551.213 868.818 551.452C868.729 551.296 868.623 551.148 868.55 550.983C867.705 549.057 868.116 546.234 868.247 544.17C869.321 527.267 875.811 512.9 879.437 496.713C880.944 489.983 880.601 482.715 883.06 476.305Z"/>
	<path fill="#FEFEFE" d="M924.528 496.107C926.465 495.942 928.616 495.521 930.425 496.367C937.5 499.676 940.427 514.294 942.628 521.078C939.078 522.549 936.051 524.041 932.872 526.209C931.401 522.773 929.804 519.599 927.206 516.86C923.988 513.469 919.803 511.258 915.056 511.283C909.44 511.311 905.555 514.299 901.791 518.079C901.085 519.107 899.909 521.191 898.795 521.773C897.671 522.359 896.315 522.541 895.088 522.184C891.338 521.094 888.517 515.827 886.495 512.752L886.522 499.776C888.836 504.169 892.559 511.354 897.68 512.768C904.588 514.675 917.102 499.933 923.905 496.421L924.528 496.107Z"/>
	<path fill="#FEFEFE" d="M873.975 411.027C880.467 410.85 886.487 411.776 891.973 415.559C897.704 419.512 900.975 425.656 902.063 432.443C902.891 437.606 902.971 445 899.61 449.253C898.512 450.643 897.59 450.833 895.887 451.005C884.687 448.59 875.278 443.296 866.535 436.004C866.31 430.529 865.738 424.327 867.349 419.018C868.539 415.096 870.461 412.99 873.975 411.027Z"/>
	<path fill="#26314C" d="M868.769 424.169C870.182 424.752 871.232 425.123 872.21 426.371C872.648 428.057 871.989 429.333 871.407 430.89C869.967 430.235 869.324 429.888 868.347 428.574C867.888 426.832 868.214 425.854 868.769 424.169Z"/>
	<path fill="#26314C" d="M894.94 425.683C896.564 425.976 897.613 426.1 898.849 427.317C899.435 428.954 899.148 429.949 898.75 431.562C898.562 431.63 898.383 431.737 898.185 431.766C896.907 431.953 896.491 431.603 895.522 430.906C894.725 429.078 894.835 427.649 894.94 425.683Z"/>
	<path fill="#26314C" d="M895.433 437.071C896.635 437.395 898.139 438.009 898.842 439.111C899.948 440.846 899.029 443.088 898.518 444.862C897.494 444.271 896.293 443.661 895.555 442.713C894.225 441.002 894.959 438.944 895.433 437.071Z"/>
	<path fill="#FEFEFE" d="M898.216 549.302C900.243 539.992 899.817 525.63 908.605 519.793C911.362 517.962 915.225 517.146 918.47 517.92C921.464 518.634 923.563 520.741 925.092 523.326C926.6 525.877 927.618 528.91 928.632 531.696C926.396 537.288 925.15 542.982 927.559 548.789C929.239 552.839 932.651 555.97 936.702 557.591C938.614 558.356 940.756 558.732 942.778 559.118C943.398 564.121 945.316 572.769 942.11 576.973C937.115 583.523 916.446 582.363 917.115 587.651C917.236 588.605 917.525 589.012 918.064 589.772L916.019 590.168C915.832 587.314 915.913 584.397 915.443 581.571C915.05 579.21 914.369 578.491 912.487 577.185L912.383 576.876C915.183 572.129 916.547 567.651 915.178 562.096C914.184 558.064 910.566 554.521 910.12 550.73C907.452 548.923 901.562 549.957 898.216 549.302Z"/>
	<path fill="#FEFEFE" d="M882.174 396.332C885.46 397.004 887.557 400.047 890.226 401.844C895.648 405.495 905.102 406.124 911.414 405.595C917.758 405.064 922.183 403.082 926.286 398.248C929.829 400.934 932.972 403.852 935.49 407.545C940.812 415.352 942.367 425.748 940.503 434.929Q940.349 435.725 940.155 436.512Q939.962 437.3 939.729 438.076Q939.496 438.853 939.224 439.616Q938.952 440.38 938.642 441.129Q938.332 441.878 937.984 442.611Q937.637 443.344 937.253 444.058Q936.869 444.772 936.45 445.466Q936.031 446.16 935.577 446.832Q935.123 447.503 934.636 448.152Q934.149 448.8 933.63 449.423Q933.111 450.046 932.562 450.641Q932.012 451.237 931.433 451.805Q930.854 452.372 930.247 452.91Q929.64 453.448 929.007 453.954Q928.374 454.46 927.716 454.934Q927.058 455.408 926.377 455.848C915.21 463.19 902.803 464.954 889.889 462.243C879.714 458.455 873.565 454.383 868.54 444.388C875.765 449.484 885.158 455.765 894.243 456.452C897.371 456.688 900.102 456.245 902.423 454.022C906.89 449.743 907.978 441.913 907.972 435.968C907.963 427.659 905.064 419.798 899.087 413.917C891.18 406.137 882.18 405.321 871.723 405.381C874.873 401.83 878.278 399.027 882.174 396.332Z"/>
	<path fill="#26314C" d="M925.597 417.586C927.525 417.522 929.328 417.534 931.161 418.219C933.829 419.215 935.895 421.09 936.999 423.728C938.783 427.992 938.077 433.528 936.39 437.707C934.075 443.444 930.299 446.869 924.681 449.158C922.951 449.102 921.322 448.931 919.707 448.258C916.781 447.039 914.631 444.844 913.516 441.874C911.859 437.463 912.476 432.141 914.393 427.919C916.748 422.733 920.388 419.663 925.597 417.586Z"/>
	<path fill="#EBC86C" d="M910.518 604.044C911.152 604.769 911.273 605.946 911.361 606.868C911.929 612.879 911.339 619.206 911.341 625.251L911.462 663.96C903.802 667.527 896.447 671.895 889.008 675.905Q870.458 685.948 851.658 695.516L851.342 695.226C849.044 689.847 850.484 643.335 850.55 634.135Q879.9 617.826 910.518 604.044Z"/>
	<path fill="#EBC86C" d="M882.802 578.862C883.584 574.412 888.232 569.711 889.966 565.294Q891.085 562.43 892.333 559.621C896.506 550.331 896.806 557.235 903.574 554.605C904.496 554.247 904.808 554.385 905.737 554.811C913.59 558.413 907.662 569.503 909.719 575.037C910.372 575.823 910.724 576.277 911.708 576.661C911.928 576.748 912.158 576.804 912.383 576.876L912.487 577.185C910.394 579.074 910.234 581.226 910.085 583.938C909.836 588.441 910.426 593.061 910.557 597.572C888.172 607.48 865.555 618.439 844.523 630.977C835.742 625.906 827.352 621.273 817.512 618.506C816.301 620.039 815.108 621.366 814.572 623.28C814.727 624.287 815.237 625.027 816.087 625.621C816.617 625.991 817.197 626.214 817.796 625.935C818.835 625.451 819.515 624.507 820.246 623.655C822.743 624.029 843.01 635.542 844.145 637.481C844.872 638.722 844.584 641.453 844.528 642.864L844.415 646.547C844.473 648.267 844.524 649.911 844.313 651.622C844.404 652.764 844.535 653.896 844.425 655.042C844.484 659.774 845.466 677.218 844.44 680.367C845.275 681.503 845.526 681.879 845.448 683.366C845.433 683.644 845.358 683.917 845.313 684.192C844.572 687.766 844.78 691.683 844.739 695.328C831.504 688.787 817.663 682.721 805.55 674.222Q805.376 638.33 806.019 602.446C814.649 597.222 823.684 592.644 832.59 587.911C847.311 580.087 861.855 572.493 877.257 566.07L882.05 568.925C878.609 574.916 875.236 581.818 870.078 586.525C864.218 591.874 826.681 608.825 816.583 613.367L822.887 617.852C828.839 614.571 867.893 593.751 871.104 593.242C872.759 592.981 873.388 593.715 874.689 594.561C873.513 588.952 879.128 586.085 881.427 581.453C881.863 580.575 882.335 579.724 882.802 578.862Z"/>
	<path fill="#0D2458" d="M844.415 646.547C841.657 645.674 838.023 644.296 836.571 641.584C835.963 640.451 835.834 639.334 836.237 638.13C838.891 638.772 842.081 641.451 844.528 642.864L844.415 646.547Z"/>
	<path fill="#0D2458" d="M834.876 653.63C836.74 654.398 838.952 655.594 840.518 656.886C842.561 658.571 843.18 660.189 843.42 662.765C841.039 662.464 837.898 660.865 836.274 659.121C834.546 657.265 834.748 656.023 834.876 653.63Z"/>
	<path fill="#0D2458" d="M815.037 633.33C817.164 634.681 819.421 635.801 821.59 637.082C824.24 638.647 826.208 640.403 827.001 643.433L826.209 643.882C823.018 642.496 819.558 641.659 816.447 640.14C814.81 639.341 813.838 638.542 813.212 636.818C813.464 635.293 814.115 634.503 815.037 633.33Z"/>
	<path fill="#0D2458" d="M844.425 655.042Q842.889 654.51 841.425 653.803C837.38 651.825 829.203 647.357 827.762 642.984L828.155 642.549C833.007 642.72 840.32 648.863 844.313 651.622C844.404 652.764 844.535 653.896 844.425 655.042Z"/>
	<path fill="#0D2458" d="M812.668 649.564C817.287 650.708 822.147 653.175 825.51 656.551C827.265 658.313 827.01 659.442 827.021 661.802C823.15 660.403 818.501 657.626 815.295 655.048C813.001 653.203 812.966 652.383 812.668 649.564Z"/>
	<path fill="#0D2458" d="M828.064 657.937C832.638 660.317 840.063 663.293 842.202 668.353C843.208 670.735 842.326 672.811 841.387 675.047C840.311 674.709 839.857 674.524 839.153 673.631C839.178 672.767 839.366 671.135 839.032 670.341C837.302 666.241 829.956 666.321 828.064 657.937Z"/>
	<path fill="#0D2458" d="M814.068 642.273C820.37 643.498 823.243 646.349 827.728 650.589C829.318 650.724 831.78 650.695 832.752 652.151C833.612 653.438 833.431 654.883 833.248 656.325C833.164 656.309 833.081 656.293 832.998 656.278C829.349 655.645 825.331 651.935 821.926 650.177C819.579 648.966 814.755 647.745 813.136 645.84C813.016 644.243 813.406 643.703 814.068 642.273Z"/>
	<path fill="#0D2458" d="M813.502 627.571C814.497 627.504 815.514 627.438 816.51 627.521C821.038 627.902 831.958 633.205 834.397 637.033C835.356 638.539 834.809 639.418 834.438 641.021C830.365 639.851 827.369 636.123 823.599 634.243C820.196 632.546 816.395 633.263 813.401 630.519C812.847 629.089 812.995 629.045 813.502 627.571Z"/>
	<path fill="#0D2458" d="M845.313 684.192C839.325 684.897 826.393 675.796 821.691 672.179C817.969 669.315 813.272 665.373 812.63 660.483C813.118 659.187 813.038 659.028 814.225 658.363C818.62 659.142 823.045 666.803 825.578 670.364C826.038 669.782 826.553 669.01 827.126 668.547C828.246 667.644 828.615 667.819 829.951 667.992C832.109 669.537 832.648 672.162 833.171 674.617C836.866 676.726 840.549 678.643 844.44 680.367C845.275 681.503 845.526 681.879 845.448 683.366C845.433 683.644 845.358 683.917 845.313 684.192Z"/>
	<path fill="#0D2458" d="M882.802 578.862C886.14 574.92 888.981 571.352 893.494 568.717L894.312 568.231C894.477 568.134 894.643 568.041 894.808 567.947C890.734 577.814 882.939 584.896 877.113 593.673C886.722 586.353 894.247 576.759 903.871 569.414C905.302 570.455 906.785 571.46 908.175 572.554C902.39 577.616 885.527 598.41 878.769 597.962C877.248 597.861 876.201 596.949 875.391 595.735C875.138 595.355 874.918 594.955 874.689 594.561C873.513 588.952 879.128 586.085 881.427 581.453C881.863 580.575 882.335 579.724 882.802 578.862Z"/>
	<path fill="#26314C" d="M811.13 707.456C812.664 707.888 813.662 708.347 814.539 709.67L814.252 711.003C809.718 716.793 798.462 720.538 791.915 723.593C791.494 723.623 791.18 723.666 790.746 723.596C789.479 723.39 788.901 722.804 788.11 721.866L788.211 720.723C791.693 715.537 805.179 709.981 811.13 707.456Z"/>
	<path fill="#26314C" d="M837.345 714.384C837.707 714.483 838.138 714.584 838.47 714.753C839.611 715.335 839.728 715.535 840.016 716.689C837.914 722.604 817.406 734.635 811.44 737.986C810.03 737.384 809.481 737.287 808.562 736.022C808.566 735.368 808.528 735.26 808.738 734.56C810.179 729.743 832.478 717.27 837.345 714.384Z"/>
	<path fill="#26314C" d="M752.333 725.666C762 724.793 771.32 725.565 779.582 731.151C784.183 734.262 787.93 738.811 788.883 744.4C789.692 749.135 788.279 753.878 785.446 757.696C780.232 764.722 771.422 767.618 763.125 768.776C754.209 769.828 743.973 768.525 736.295 763.591C731.544 760.537 727.773 756.003 726.727 750.346Q726.572 749.482 726.502 748.607Q726.433 747.732 726.45 746.855Q726.467 745.977 726.57 745.105Q726.674 744.234 726.863 743.377Q727.052 742.52 727.324 741.685Q727.596 740.851 727.95 740.047Q728.303 739.244 728.734 738.479Q729.165 737.714 729.669 736.996C734.864 729.58 743.891 727.068 752.333 725.666ZM753.366 731.114C746.404 732.433 738.137 734.624 734.043 740.972C732.389 743.537 731.786 746.603 732.525 749.583C733.689 754.277 737.568 757.838 741.691 760.056C748.457 763.696 755.578 764.148 763.076 763.512C769.827 761.938 777.312 759.791 781.263 753.546C782.895 750.966 783.498 747.913 782.825 744.923C781.86 740.633 778.617 737.244 774.951 735.029C768.725 731.268 760.505 730.163 753.366 731.114Z"/>
</svg>
